<svg width="992" height="614" viewBox="0 0 992 614" fill="none" xmlns="http://www.w3.org/2000/svg">
<path d="M16.87 613.26C7.76999 613.26 0.389999 605.88 0.389999 596.78V17.15C0.389999 8.04998 7.76999 0.669983 16.87 0.669983C25.97 0.669983 33.35 8.04998 33.35 17.15V596.77C33.35 605.87 25.97 613.25 16.87 613.25V613.26Z" fill="white"/>
<path d="M230.24 613.26C221.14 613.26 213.76 605.88 213.76 596.78V414.06C213.76 404.96 221.14 397.58 230.24 397.58C239.34 397.58 246.72 404.96 246.72 414.06V596.78C246.72 605.88 239.34 613.26 230.24 613.26Z" fill="white"/>
<path d="M618.69 612.39C615.91 612.39 613.09 611.69 610.5 610.2C602.6 605.67 599.88 595.59 604.42 587.7L743.34 345.69C743.59 345.26 743.86 344.83 744.14 344.42L936.54 9.44002C941.09 1.55002 951.14 -1.17998 959.04 3.36002C966.94 7.89002 969.66 17.97 965.12 25.86L633 604.12C629.95 609.42 624.4 612.39 618.69 612.39Z" fill="white"/>
<path d="M715.32 218.09C728.43 218.09 736.29 203.53 729.1 192.57L608.44 8.62999C603.45 1.01999 593.23 -1.12002 585.62 3.88998C578.01 8.87998 575.88 19.1 580.88 26.71L701.53 210.66C704.58 215.31 709.76 218.1 715.31 218.1L715.32 218.09Z" fill="white"/>
<path d="M856.88 399.39C843.77 399.39 835.91 413.95 843.1 424.91L961.08 604.76C964.24 609.59 969.51 612.2 974.87 612.2C977.97 612.2 981.11 611.33 983.89 609.5C991.5 604.51 993.63 594.29 988.63 586.68L870.66 406.82C867.61 402.17 862.43 399.38 856.88 399.38V399.39Z" fill="white"/>
<path d="M270.76 295.7C257.79 295.7 244.77 295.26 232.01 294.4C222.93 293.79 216.06 285.93 216.68 276.85C217.3 267.78 225.19 260.68 234.23 261.52C246.94 262.37 260.05 262.76 272.84 262.74C345.1 262.47 397.31 262.27 432.68 230.39C468.11 198.49 468.92 150.89 468.94 148.88C469.29 115.03 453.65 81.27 428.13 60.74C397.65 36.23 356.78 35.59 275.32 34.33C261.78 34.1 248.14 34.3 234.74 34.89C225.94 35.28 217.95 28.24 217.56 19.14C217.17 10.05 224.22 2.34999 233.31 1.95999C247.35 1.35999 261.66 1.14999 275.84 1.35999C362.02 2.69999 409.49 3.42998 448.8 35.04C482.01 61.76 502.36 105.49 501.91 149.19C501.85 155.68 500.05 214.08 454.76 254.89C410.04 295.18 349.56 295.41 272.99 295.7C272.25 295.7 271.51 295.7 270.77 295.7H270.76Z" fill="white"/>
</svg>
